<svg width="350" height="355" viewBox="0 0 350 355" fill="none" xmlns="http://www.w3.org/2000/svg">
<path d="M175.003 40.7109C173.197 40.7109 171.391 41.9233 171.426 44.3382V55.5129L164.85 48.942C163.444 47.4981 161.116 47.4976 159.727 48.9277C158.34 50.3585 158.376 52.6181 159.79 53.9919C163.669 57.8633 167.547 61.7345 171.426 65.606V84.5305L155.004 75.0717C153.584 69.7821 152.168 64.4922 150.748 59.2026C150.263 57.2929 148.322 56.1373 146.387 56.6217C144.452 57.107 143.287 59.1136 143.836 61.0511L146.247 70.0215L136.548 64.4342C134.852 63.4259 132.661 63.9741 131.635 65.6828C130.611 67.3919 131.209 69.6324 132.97 70.6144L142.663 76.2018L133.683 78.6013C131.727 79.0949 130.565 81.1084 131.111 83.0238C131.659 84.9389 133.636 86.0359 135.535 85.5C140.831 84.0834 146.129 82.6687 151.426 81.252L167.848 90.7177L151.426 100.176C146.129 98.7598 140.831 97.345 135.535 95.9284C133.636 95.3925 131.659 96.4896 131.111 98.4047C130.565 100.32 131.727 102.334 133.683 102.827L142.669 105.227L132.97 110.814C131.209 111.796 130.611 114.037 131.635 115.746C132.661 117.454 134.852 118.002 136.548 116.994L146.247 111.407L143.836 120.377C143.287 122.315 144.452 124.321 146.387 124.807C148.322 125.291 150.263 124.135 150.748 122.226C152.168 116.936 153.584 111.646 155.004 106.357L171.426 96.898V115.822C167.547 119.694 163.669 123.565 159.79 127.437C158.376 128.81 158.34 131.07 159.727 132.501C161.116 133.931 163.444 133.931 164.85 132.486L171.426 125.923V137.09C171.397 139.104 173.036 140.742 175.031 140.711C177.027 140.678 178.608 139.06 178.581 137.09V125.936L185.15 132.486C186.556 133.93 188.884 133.931 190.273 132.501C191.66 131.07 191.624 128.81 190.21 127.437C186.333 123.568 182.457 119.699 178.581 115.829V96.9049L194.996 106.364C196.416 111.651 197.84 116.938 199.259 122.226C199.744 124.135 201.684 125.291 203.62 124.807C205.555 124.321 206.72 122.315 206.17 120.377L203.766 111.414L213.452 116.994C217.608 119.468 221.254 113.163 217.03 110.807L207.344 105.227L216.317 102.827C218.273 102.334 219.435 100.32 218.889 98.4047C218.341 96.4896 216.364 95.3926 214.465 95.9284C209.171 97.3445 203.876 98.7604 198.581 100.176L182.159 90.7177L198.581 81.252C203.876 82.6681 209.171 84.084 214.465 85.5C216.364 86.0359 218.341 84.9389 218.889 83.0238C219.435 81.1084 218.273 79.0949 216.317 78.6013L207.344 76.2018L217.03 70.6214C221.254 68.2656 217.608 61.9601 213.452 64.4342L203.76 70.0215L206.17 61.0511C206.72 59.1136 205.555 57.107 203.62 56.6217C201.684 56.1373 199.744 57.293 199.259 59.2026C197.839 64.4922 196.416 69.782 194.996 75.0717L178.581 84.5305V65.5991C182.457 61.7299 186.333 57.8609 190.21 53.9919C191.624 52.6181 191.66 50.3585 190.273 48.9277C188.884 47.4973 186.556 47.4977 185.15 48.942L178.581 55.4989V44.3382C178.617 41.9233 176.81 40.7109 175.003 40.7109Z" fill="black"/>
<path d="M53.7344 225.523V216.273L72.0469 187.461H87.1094V216.211H92.3594V225.523H87.1094V232.711H75.7344V225.523H53.7344ZM65.4844 216.211H75.9844V199.836H75.6094L65.4844 215.898V216.211ZM117.047 233.336C104.859 233.336 97.2969 224.898 97.2969 210.086C97.2969 195.211 104.859 186.836 117.047 186.836C129.234 186.836 136.797 195.273 136.797 210.086C136.797 224.961 129.234 233.336 117.047 233.336ZM117.047 223.773C121.422 223.711 124.484 219.711 124.484 210.086C124.484 200.711 121.422 196.398 117.047 196.398C112.672 196.398 109.672 200.711 109.609 210.086C109.609 219.711 112.672 223.711 117.047 223.773ZM155.984 211.148C148.672 211.148 144.734 205.836 144.734 198.273C144.734 190.648 148.859 185.336 155.984 185.336C163.422 185.336 167.359 190.648 167.422 198.273C167.359 205.961 163.359 211.148 155.984 211.148ZM155.984 204.461C158.547 204.461 159.797 202.023 159.797 198.273C159.797 194.586 158.609 192.023 155.984 192.023C153.609 192.023 152.359 194.711 152.359 198.273C152.359 202.023 153.734 204.461 155.984 204.461ZM188.547 234.773C181.234 234.773 177.297 229.461 177.297 221.898C177.297 214.273 181.422 208.961 188.547 208.961C195.984 208.961 199.922 214.273 199.922 221.898C199.922 229.586 195.859 234.773 188.547 234.773ZM188.547 228.086C191.047 228.086 192.297 225.648 192.359 221.898C192.297 218.211 191.172 215.648 188.547 215.711C186.172 215.648 184.859 218.336 184.859 221.898C184.859 225.648 186.234 228.086 188.547 228.086ZM152.547 232.711L183.672 187.461H191.984L160.859 232.711H152.547Z" fill="black"/>
<path d="M227.547 232.711V210.086H233.484V227.898H242.703V232.711H227.547ZM253.391 233.023C247.984 233.023 244.672 229.742 244.672 224.273C244.672 219.023 248.016 215.523 253.266 215.523C258.297 215.523 261.641 218.773 261.641 224.211V225.617H250.516V225.836C250.516 227.586 251.641 228.836 253.516 228.836C254.797 228.836 255.828 228.273 256.203 227.305H261.609C261.016 230.805 258.016 233.023 253.391 233.023ZM250.516 222.305H256.172C256.141 220.773 254.953 219.711 253.391 219.711C251.812 219.711 250.562 220.789 250.516 222.305ZM274.047 221.211C273.922 220.148 272.922 219.492 271.672 219.492C270.547 219.492 269.641 219.93 269.672 220.68C269.641 221.211 270.047 221.68 271.391 221.93L274.766 222.555C278.234 223.18 279.891 224.648 279.922 227.148C279.891 230.742 276.484 233.023 271.828 233.023C266.703 233.023 263.734 230.742 263.391 227.305H269.266C269.453 228.398 270.422 229.023 271.859 229.023C273.047 229.023 273.891 228.586 273.922 227.836C273.891 227.148 273.297 226.773 271.922 226.523L268.953 225.992C265.516 225.367 263.797 223.648 263.797 221.023C263.797 217.523 266.766 215.523 271.547 215.523C276.359 215.523 279.328 217.648 279.484 221.211H274.047ZM292.203 221.211C292.078 220.148 291.078 219.492 289.828 219.492C288.703 219.492 287.797 219.93 287.828 220.68C287.797 221.211 288.203 221.68 289.547 221.93L292.922 222.555C296.391 223.18 298.047 224.648 298.078 227.148C298.047 230.742 294.641 233.023 289.984 233.023C284.859 233.023 281.891 230.742 281.547 227.305H287.422C287.609 228.398 288.578 229.023 290.016 229.023C291.203 229.023 292.047 228.586 292.078 227.836C292.047 227.148 291.453 226.773 290.078 226.523L287.109 225.992C283.672 225.367 281.953 223.648 281.953 221.023C281.953 217.523 284.922 215.523 289.703 215.523C294.516 215.523 297.484 217.648 297.641 221.211H292.203Z" fill="#176EB7"/>
<path d="M35.5625 283.086H52.625V285.586H45.5312V305.711H42.6875V285.586H35.5625V283.086ZM58.7188 305.711H56.0312V283.086H58.7188V291.398H58.9375C59.3542 290.482 59.9688 289.773 60.7812 289.273C61.5938 288.773 62.6458 288.523 63.9375 288.523C65.125 288.523 66.151 288.758 67.0156 289.227C67.8802 289.695 68.5469 290.409 69.0156 291.367C69.4844 292.326 69.7188 293.513 69.7188 294.93V305.711H67.0312V295.117C67.0312 294.242 66.875 293.487 66.5625 292.852C66.25 292.216 65.8021 291.737 65.2188 291.414C64.6354 291.091 63.9375 290.93 63.125 290.93C62.2708 290.93 61.5156 291.107 60.8594 291.461C60.2031 291.815 59.6823 292.341 59.2969 293.039C58.9115 293.737 58.7188 294.565 58.7188 295.523V305.711ZM81.1562 306.055C79.5521 306.055 78.151 305.695 76.9531 304.977C75.7552 304.258 74.8333 303.242 74.1875 301.93C73.5417 300.617 73.2188 299.096 73.2188 297.367C73.2188 295.638 73.5417 294.102 74.1875 292.758C74.8333 291.414 75.7344 290.372 76.8906 289.633C78.0469 288.893 79.3854 288.523 80.9062 288.523C82.1979 288.523 83.3958 288.805 84.5 289.367C85.6042 289.93 86.5 290.846 87.1875 292.117C87.875 293.388 88.2188 295.013 88.2188 296.992V298.117H75.0938V295.836H85.5C85.5 294.878 85.3125 294.029 84.9375 293.289C84.5625 292.549 84.026 291.966 83.3281 291.539C82.6302 291.112 81.8229 290.898 80.9062 290.898C79.9062 290.898 79.0312 291.143 78.2812 291.633C77.5312 292.122 76.9479 292.779 76.5312 293.602C76.1146 294.424 75.9062 295.305 75.9062 296.242V297.773C75.9062 299.023 76.125 300.091 76.5625 300.977C77 301.862 77.6146 302.534 78.4062 302.992C79.1979 303.451 80.1146 303.68 81.1562 303.68C81.8021 303.68 82.3854 303.591 82.9062 303.414C83.4271 303.237 83.8698 303.008 84.2344 302.727C84.599 302.445 84.8854 302.117 85.0938 301.742H87.9688C87.6979 302.596 87.25 303.346 86.625 303.992C86 304.638 85.2188 305.143 84.2812 305.508C83.3438 305.872 82.3021 306.055 81.1562 306.055ZM91.7188 288.742H94.3125V291.336H94.5C94.8125 290.461 95.3698 289.763 96.1719 289.242C96.974 288.721 97.875 288.461 98.875 288.461C99.3958 288.461 99.8646 288.482 100.281 288.523V291.242C100.177 291.201 99.9583 291.159 99.625 291.117C99.2917 291.076 98.9688 291.055 98.6562 291.055C97.8646 291.055 97.1458 291.227 96.5 291.57C95.8542 291.914 95.3438 292.388 94.9688 292.992C94.5938 293.596 94.4062 294.273 94.4062 295.023V305.711H91.7188V288.742ZM102.906 288.742H105.5V291.398H105.719C106.094 290.482 106.672 289.773 107.453 289.273C108.234 288.773 109.177 288.523 110.281 288.523C111.01 288.523 111.667 288.633 112.25 288.852C112.833 289.07 113.339 289.393 113.766 289.82C114.193 290.247 114.542 290.773 114.812 291.398H115C115.292 290.794 115.682 290.279 116.172 289.852C116.661 289.424 117.24 289.096 117.906 288.867C118.573 288.638 119.302 288.523 120.094 288.523C121.135 288.523 122.042 288.737 122.812 289.164C123.583 289.591 124.188 290.237 124.625 291.102C125.062 291.966 125.281 293.055 125.281 294.367V305.711H122.594V294.398C122.594 293.211 122.271 292.336 121.625 291.773C120.979 291.211 120.156 290.93 119.156 290.93C118.385 290.93 117.719 291.091 117.156 291.414C116.594 291.737 116.167 292.18 115.875 292.742C115.583 293.305 115.438 293.951 115.438 294.68V305.711H112.719V294.117C112.719 293.492 112.578 292.935 112.297 292.445C112.016 291.956 111.625 291.581 111.125 291.32C110.625 291.06 110.052 290.93 109.406 290.93C108.74 290.93 108.115 291.107 107.531 291.461C106.948 291.815 106.479 292.31 106.125 292.945C105.771 293.581 105.594 294.305 105.594 295.117V305.711H102.906V288.742ZM139.969 297.836C139.781 297.836 138.875 297.898 137.25 298.023L135.469 298.148C134.198 298.232 133.214 298.508 132.516 298.977C131.818 299.445 131.469 300.128 131.469 301.023C131.469 301.607 131.62 302.096 131.922 302.492C132.224 302.888 132.646 303.19 133.188 303.398C133.729 303.607 134.344 303.711 135.031 303.711C136.01 303.711 136.854 303.518 137.562 303.133C138.271 302.747 138.812 302.237 139.188 301.602C139.562 300.966 139.75 300.284 139.75 299.555V294.273C139.75 293.544 139.609 292.924 139.328 292.414C139.047 291.904 138.62 291.518 138.047 291.258C137.474 290.997 136.76 290.867 135.906 290.867C134.885 290.867 134.047 291.076 133.391 291.492C132.734 291.909 132.302 292.461 132.094 293.148H129.281C129.406 292.232 129.766 291.424 130.359 290.727C130.953 290.029 131.74 289.487 132.719 289.102C133.698 288.716 134.802 288.523 136.031 288.523C137.01 288.523 137.969 288.669 138.906 288.961C139.844 289.253 140.661 289.841 141.359 290.727C142.057 291.612 142.406 292.878 142.406 294.523V305.711H139.75V303.398H139.625C139.417 303.836 139.099 304.258 138.672 304.664C138.245 305.07 137.682 305.414 136.984 305.695C136.286 305.977 135.479 306.117 134.562 306.117C133.479 306.117 132.5 305.909 131.625 305.492C130.75 305.076 130.057 304.471 129.547 303.68C129.036 302.888 128.781 301.961 128.781 300.898C128.781 299.128 129.385 297.883 130.594 297.164C131.802 296.445 133.323 296.023 135.156 295.898C135.365 295.878 136.365 295.815 138.156 295.711L139.938 295.648L139.969 297.836ZM149.406 305.711H146.719V283.086H149.406V305.711ZM162.062 283.086H169.75C171.479 283.086 172.922 283.378 174.078 283.961C175.234 284.544 176.089 285.362 176.641 286.414C177.193 287.466 177.469 288.68 177.469 290.055C177.469 291.409 177.193 292.602 176.641 293.633C176.089 294.664 175.234 295.471 174.078 296.055C172.922 296.638 171.49 296.93 169.781 296.93H163.594V294.367H169.656C170.844 294.367 171.807 294.195 172.547 293.852C173.286 293.508 173.828 293.018 174.172 292.383C174.516 291.747 174.688 290.971 174.688 290.055C174.688 289.117 174.516 288.315 174.172 287.648C173.828 286.982 173.281 286.471 172.531 286.117C171.781 285.763 170.812 285.586 169.625 285.586H164.875V305.711H162.062V283.086ZM178.344 305.711H175.062L169.594 295.555H172.781L178.344 305.711ZM188.125 306.055C186.521 306.055 185.12 305.695 183.922 304.977C182.724 304.258 181.802 303.242 181.156 301.93C180.51 300.617 180.188 299.096 180.188 297.367C180.188 295.638 180.51 294.102 181.156 292.758C181.802 291.414 182.703 290.372 183.859 289.633C185.016 288.893 186.354 288.523 187.875 288.523C189.167 288.523 190.365 288.805 191.469 289.367C192.573 289.93 193.469 290.846 194.156 292.117C194.844 293.388 195.188 295.013 195.188 296.992V298.117H182.062V295.836H192.469C192.469 294.878 192.281 294.029 191.906 293.289C191.531 292.549 190.995 291.966 190.297 291.539C189.599 291.112 188.792 290.898 187.875 290.898C186.875 290.898 186 291.143 185.25 291.633C184.5 292.122 183.917 292.779 183.5 293.602C183.083 294.424 182.875 295.305 182.875 296.242V297.773C182.875 299.023 183.094 300.091 183.531 300.977C183.969 301.862 184.583 302.534 185.375 302.992C186.167 303.451 187.083 303.68 188.125 303.68C188.771 303.68 189.354 303.591 189.875 303.414C190.396 303.237 190.839 303.008 191.203 302.727C191.568 302.445 191.854 302.117 192.062 301.742H194.938C194.667 302.596 194.219 303.346 193.594 303.992C192.969 304.638 192.188 305.143 191.25 305.508C190.312 305.872 189.271 306.055 188.125 306.055ZM208.125 293.148C207.938 292.398 207.557 291.82 206.984 291.414C206.411 291.008 205.646 290.805 204.688 290.805C204 290.805 203.385 290.914 202.844 291.133C202.302 291.352 201.875 291.659 201.562 292.055C201.25 292.451 201.094 292.888 201.094 293.367C201.094 293.93 201.333 294.409 201.812 294.805C202.292 295.201 203.021 295.513 204 295.742L206.531 296.367C208.052 296.721 209.188 297.279 209.938 298.039C210.688 298.799 211.062 299.773 211.062 300.961C211.062 301.94 210.802 302.815 210.281 303.586C209.76 304.357 209 304.961 208 305.398C207 305.836 205.802 306.055 204.406 306.055C203.135 306.055 202.042 305.872 201.125 305.508C200.208 305.143 199.474 304.602 198.922 303.883C198.37 303.164 198.021 302.294 197.875 301.273H200.688C200.854 302.086 201.24 302.695 201.844 303.102C202.448 303.508 203.281 303.711 204.344 303.711C205.135 303.711 205.828 303.607 206.422 303.398C207.016 303.19 207.474 302.888 207.797 302.492C208.12 302.096 208.281 301.638 208.281 301.117C208.281 300.513 208.057 300.008 207.609 299.602C207.161 299.195 206.458 298.888 205.5 298.68L202.938 298.086C201.458 297.732 200.333 297.164 199.562 296.383C198.792 295.602 198.406 294.648 198.406 293.523C198.406 292.565 198.672 291.706 199.203 290.945C199.734 290.185 200.474 289.591 201.422 289.164C202.37 288.737 203.458 288.523 204.688 288.523C205.833 288.523 206.844 288.716 207.719 289.102C208.594 289.487 209.292 290.029 209.812 290.727C210.333 291.424 210.646 292.232 210.75 293.148H208.125ZM214.562 288.742H217.25V305.711H214.562V288.742ZM215.906 285.93C215.573 285.93 215.26 285.852 214.969 285.695C214.677 285.539 214.448 285.32 214.281 285.039C214.115 284.758 214.031 284.461 214.031 284.148C214.031 283.815 214.115 283.513 214.281 283.242C214.448 282.971 214.677 282.758 214.969 282.602C215.26 282.445 215.573 282.367 215.906 282.367C216.26 282.367 216.583 282.445 216.875 282.602C217.167 282.758 217.396 282.971 217.562 283.242C217.729 283.513 217.812 283.815 217.812 284.148C217.812 284.461 217.729 284.758 217.562 285.039C217.396 285.32 217.167 285.539 216.875 285.695C216.583 285.852 216.26 285.93 215.906 285.93ZM230.969 293.148C230.781 292.398 230.401 291.82 229.828 291.414C229.255 291.008 228.49 290.805 227.531 290.805C226.844 290.805 226.229 290.914 225.688 291.133C225.146 291.352 224.719 291.659 224.406 292.055C224.094 292.451 223.938 292.888 223.938 293.367C223.938 293.93 224.177 294.409 224.656 294.805C225.135 295.201 225.865 295.513 226.844 295.742L229.375 296.367C230.896 296.721 232.031 297.279 232.781 298.039C233.531 298.799 233.906 299.773 233.906 300.961C233.906 301.94 233.646 302.815 233.125 303.586C232.604 304.357 231.844 304.961 230.844 305.398C229.844 305.836 228.646 306.055 227.25 306.055C225.979 306.055 224.885 305.872 223.969 305.508C223.052 305.143 222.318 304.602 221.766 303.883C221.214 303.164 220.865 302.294 220.719 301.273H223.531C223.698 302.086 224.083 302.695 224.688 303.102C225.292 303.508 226.125 303.711 227.188 303.711C227.979 303.711 228.672 303.607 229.266 303.398C229.859 303.19 230.318 302.888 230.641 302.492C230.964 302.096 231.125 301.638 231.125 301.117C231.125 300.513 230.901 300.008 230.453 299.602C230.005 299.195 229.302 298.888 228.344 298.68L225.781 298.086C224.302 297.732 223.177 297.164 222.406 296.383C221.635 295.602 221.25 294.648 221.25 293.523C221.25 292.565 221.516 291.706 222.047 290.945C222.578 290.185 223.318 289.591 224.266 289.164C225.214 288.737 226.302 288.523 227.531 288.523C228.677 288.523 229.688 288.716 230.562 289.102C231.438 289.487 232.135 290.029 232.656 290.727C233.177 291.424 233.49 292.232 233.594 293.148H230.969ZM244.812 290.992H235.969V288.742H244.812V290.992ZM241.25 284.68V300.836C241.25 301.523 241.349 302.049 241.547 302.414C241.745 302.779 242.005 303.029 242.328 303.164C242.651 303.299 243.031 303.367 243.469 303.367C243.99 303.367 244.521 303.346 245.062 303.305V305.805C244.521 305.888 243.896 305.93 243.188 305.93C242.396 305.93 241.646 305.763 240.938 305.43C240.229 305.096 239.651 304.596 239.203 303.93C238.755 303.263 238.531 302.461 238.531 301.523V284.68H241.25ZM258.656 297.836C258.469 297.836 257.562 297.898 255.938 298.023L254.156 298.148C252.885 298.232 251.901 298.508 251.203 298.977C250.505 299.445 250.156 300.128 250.156 301.023C250.156 301.607 250.307 302.096 250.609 302.492C250.911 302.888 251.333 303.19 251.875 303.398C252.417 303.607 253.031 303.711 253.719 303.711C254.698 303.711 255.542 303.518 256.25 303.133C256.958 302.747 257.5 302.237 257.875 301.602C258.25 300.966 258.438 300.284 258.438 299.555V294.273C258.438 293.544 258.297 292.924 258.016 292.414C257.734 291.904 257.307 291.518 256.734 291.258C256.161 290.997 255.448 290.867 254.594 290.867C253.573 290.867 252.734 291.076 252.078 291.492C251.422 291.909 250.99 292.461 250.781 293.148H247.969C248.094 292.232 248.453 291.424 249.047 290.727C249.641 290.029 250.427 289.487 251.406 289.102C252.385 288.716 253.49 288.523 254.719 288.523C255.698 288.523 256.656 288.669 257.594 288.961C258.531 289.253 259.349 289.841 260.047 290.727C260.745 291.612 261.094 292.878 261.094 294.523V305.711H258.438V303.398H258.312C258.104 303.836 257.786 304.258 257.359 304.664C256.932 305.07 256.37 305.414 255.672 305.695C254.974 305.977 254.167 306.117 253.25 306.117C252.167 306.117 251.188 305.909 250.312 305.492C249.438 305.076 248.745 304.471 248.234 303.68C247.724 302.888 247.469 301.961 247.469 300.898C247.469 299.128 248.073 297.883 249.281 297.164C250.49 296.445 252.01 296.023 253.844 295.898C254.052 295.878 255.052 295.815 256.844 295.711L258.625 295.648L258.656 297.836ZM268.094 305.711H265.406V288.742H268V291.398H268.219C268.656 290.482 269.281 289.773 270.094 289.273C270.906 288.773 271.938 288.523 273.188 288.523C274.354 288.523 275.365 288.758 276.219 289.227C277.073 289.695 277.734 290.409 278.203 291.367C278.672 292.326 278.906 293.513 278.906 294.93V305.711H276.219V295.117C276.219 294.242 276.068 293.492 275.766 292.867C275.464 292.242 275.026 291.763 274.453 291.43C273.88 291.096 273.188 290.93 272.375 290.93C271.542 290.93 270.802 291.107 270.156 291.461C269.51 291.815 269.005 292.341 268.641 293.039C268.276 293.737 268.094 294.565 268.094 295.523V305.711ZM290.156 306.055C288.594 306.055 287.224 305.68 286.047 304.93C284.87 304.18 283.969 303.143 283.344 301.82C282.719 300.497 282.406 298.992 282.406 297.305C282.406 295.596 282.729 294.076 283.375 292.742C284.021 291.409 284.922 290.372 286.078 289.633C287.234 288.893 288.573 288.523 290.094 288.523C291.302 288.523 292.391 288.742 293.359 289.18C294.328 289.617 295.115 290.242 295.719 291.055C296.323 291.867 296.698 292.805 296.844 293.867H294.156C294.031 293.326 293.792 292.831 293.438 292.383C293.083 291.935 292.63 291.576 292.078 291.305C291.526 291.034 290.885 290.898 290.156 290.898C289.156 290.898 288.276 291.159 287.516 291.68C286.755 292.201 286.161 292.935 285.734 293.883C285.307 294.831 285.094 295.94 285.094 297.211C285.094 298.503 285.302 299.633 285.719 300.602C286.135 301.57 286.724 302.32 287.484 302.852C288.245 303.383 289.135 303.648 290.156 303.648C290.823 303.648 291.432 303.534 291.984 303.305C292.536 303.076 293 302.737 293.375 302.289C293.75 301.841 294.01 301.315 294.156 300.711H296.844C296.698 301.732 296.333 302.643 295.75 303.445C295.167 304.247 294.396 304.883 293.438 305.352C292.479 305.82 291.385 306.055 290.156 306.055ZM307.281 306.055C305.677 306.055 304.276 305.695 303.078 304.977C301.88 304.258 300.958 303.242 300.312 301.93C299.667 300.617 299.344 299.096 299.344 297.367C299.344 295.638 299.667 294.102 300.312 292.758C300.958 291.414 301.859 290.372 303.016 289.633C304.172 288.893 305.51 288.523 307.031 288.523C308.323 288.523 309.521 288.805 310.625 289.367C311.729 289.93 312.625 290.846 313.312 292.117C314 293.388 314.344 295.013 314.344 296.992V298.117H301.219V295.836H311.625C311.625 294.878 311.438 294.029 311.062 293.289C310.688 292.549 310.151 291.966 309.453 291.539C308.755 291.112 307.948 290.898 307.031 290.898C306.031 290.898 305.156 291.143 304.406 291.633C303.656 292.122 303.073 292.779 302.656 293.602C302.24 294.424 302.031 295.305 302.031 296.242V297.773C302.031 299.023 302.25 300.091 302.688 300.977C303.125 301.862 303.74 302.534 304.531 302.992C305.323 303.451 306.24 303.68 307.281 303.68C307.927 303.68 308.51 303.591 309.031 303.414C309.552 303.237 309.995 303.008 310.359 302.727C310.724 302.445 311.01 302.117 311.219 301.742H314.094C313.823 302.596 313.375 303.346 312.75 303.992C312.125 304.638 311.344 305.143 310.406 305.508C309.469 305.872 308.427 306.055 307.281 306.055Z" fill="black"/>
</svg>
